<svg id="Layer_1" enable-background="new 0 0 256 256" height="512" viewBox="0 0 256 256" width="512" xmlns="http://www.w3.org/2000/svg"><g><g><g><path d="m202.37 222.985c0 2.75-2.25 5-5 5h-138.74c-2.75 0-5-2.25-5-5v-178.34c0-2.75 2.25-5 5-5h138.74c2.75 0 5 2.25 5 5z" fill="#f8af23"/></g></g><g><g><path d="m66.67 227.985h-8.04c-2.75 0-5-2.25-5-5v-178.34c0-2.75 2.25-5 5-5h8.04c-2.75 0-5 2.25-5 5v178.34c0 2.75 2.25 5 5 5z" fill="#f87023"/></g></g><g><g><path d="m189.33 227.985h8.04c2.75 0 5-2.25 5-5v-178.34c0-2.75-2.25-5-5-5h-8.04c2.75 0 5 2.25 5 5v178.34c0 2.75-2.25 5-5 5z" fill="#f8d323"/></g></g><g><g><path d="m144.016 80.717v30.487l-16.016-14.572-16.016 14.572v-30.487c4.78 2.527 10.239 3.957 16.016 3.957s11.236-1.43 16.016-3.957z" fill="#f46275"/></g></g><g><g><path d="m128 15.83c-19.005 0-34.415 15.409-34.415 34.415 0 13.229 7.452 24.71 18.399 30.472 4.78 2.527 10.239 3.957 16.016 3.957s11.236-1.43 16.016-3.957c10.947-5.762 18.399-17.244 18.399-30.472 0-19.006-15.41-34.415-34.415-34.415z" fill="#63bce7"/></g></g><g><g><path d="m111.984 80.717v30.487l8.44-7.679v-19.706c-2.977-.671-5.813-1.714-8.44-3.102z" fill="#f43075"/></g></g><g><g><path d="m102.025 50.245c0-17.576 13.182-32.066 30.195-34.148-1.384-.169-2.79-.267-4.22-.267-19.005 0-34.415 15.409-34.415 34.415 0 13.229 7.452 24.71 18.399 30.472 4.78 2.527 10.239 3.957 16.016 3.957 1.428 0 2.836-.089 4.22-.258-4.214-.517-8.198-1.796-11.796-3.699-10.947-5.762-18.399-17.244-18.399-30.472z" fill="#6377e7"/></g></g><g><g><path d="m138.676 34.758-15.634 17.901-5.124-4.152c-2.282-1.847-5.624-1.495-7.468.786-1.846 2.276-1.496 5.62.781 7.468l13.078 10.592 22.365-25.608c1.929-2.209 1.702-5.564-.508-7.493-2.204-1.927-5.563-1.703-7.49.506z" fill="#f8af23"/></g></g><g><g><g><path d="m132.322 187.63c-.29.81-.619 1.589-.978 2.36l7.257 7.257-14.269 14.269-7.257-7.257c-.771.359-1.558.687-2.36.978v10.266h-20.172v-10.266c-.802-.29-1.589-.619-2.36-.978l-7.257 7.257-14.269-14.269 7.257-7.257c-.359-.771-.687-1.551-.978-2.36h-10.266v-20.173h10.266c.29-.802.619-1.589.978-2.36l-7.257-7.257 14.269-14.269 7.257 7.264c.771-.359 1.558-.695 2.36-.985v-10.258h20.173v10.258c.802.29 1.589.626 2.36.985l7.257-7.264 14.269 14.269-7.257 7.257c.359.771.687 1.558.978 2.36h10.258v20.173z" fill="#f46275"/></g></g><g><g><circle cx="104.629" cy="177.545" fill="#63bce7" r="12.846"/></g></g></g><g><g><path d="m151.114 152.638h14.843v60h-14.843z" fill="#63bce7"/></g></g><g><g><path d="m174.487 131.089h14.843v81.549h-14.843z" fill="#f46275"/></g></g><g><g><g><path d="m44.076 229.481h14.477c.026 0 .051.004.077.004h138.74c.026 0 .051-.004.077-.004h15.488c.828 0 1.5-.671 1.5-1.5s-.672-1.5-1.5-1.5h-10.095c.648-1.011 1.029-2.209 1.029-3.496v-178.34c0-3.584-2.916-6.5-6.5-6.5h-35.558c-4.976-13.868-18.252-23.815-33.811-23.815s-28.835 9.948-33.812 23.815h-35.558c-3.584 0-6.5 2.916-6.5 6.5v178.34c0 1.287.381 2.485 1.029 3.496h-9.083c-.829 0-1.5.671-1.5 1.5s.672 1.5 1.5 1.5zm83.924-212.151c18.149 0 32.915 14.766 32.915 32.915 0 12.264-6.743 23.431-17.601 29.146-4.681 2.475-9.977 3.783-15.314 3.783s-10.634-1.308-15.317-3.784c-10.854-5.714-17.598-16.881-17.598-29.145 0-18.15 14.766-32.915 32.915-32.915zm-14.516 65.772c4.543 2.011 9.512 3.072 14.516 3.072s9.974-1.061 14.516-3.072v24.709l-13.506-12.289c-.573-.521-1.447-.521-2.019 0l-13.507 12.289zm-58.354 139.883v-178.34c0-1.93 1.57-3.5 3.5-3.5h34.626c-.762 2.907-1.171 5.957-1.171 9.1 0 13.072 7.034 24.987 18.399 31.342v29.617c0 .594.35 1.132.894 1.372s1.178.137 1.616-.263l15.006-13.653 15.006 13.653c.282.256.644.391 1.01.391.205 0 .412-.042.606-.128.543-.24.894-.778.894-1.372v-29.618c11.366-6.356 18.399-18.27 18.399-31.342 0-3.143-.409-6.192-1.171-9.1h34.626c1.93 0 3.5 1.57 3.5 3.5v178.34c0 1.917-1.55 3.475-3.461 3.496h-138.818c-1.911-.021-3.461-1.579-3.461-3.495z" fill="#231f20"/></g></g><g><g><path d="m35.768 227.981c0-.829-.671-1.5-1.5-1.5h-8.344c-.829 0-1.5.671-1.5 1.5s.671 1.5 1.5 1.5h8.344c.828 0 1.5-.671 1.5-1.5z" fill="#231f20"/></g></g><g><g><path d="m230.076 226.481h-8.346c-.828 0-1.5.671-1.5 1.5s.672 1.5 1.5 1.5h8.346c.828 0 1.5-.671 1.5-1.5s-.672-1.5-1.5-1.5z" fill="#231f20"/></g></g><g><g><path d="m202.869 238.67h-148.726c-.829 0-1.5.671-1.5 1.5s.671 1.5 1.5 1.5h148.727c.828 0 1.5-.671 1.5-1.5s-.673-1.5-1.501-1.5z" fill="#231f20"/></g></g><g><g><path d="m45.133 238.67h-8.344c-.829 0-1.5.671-1.5 1.5s.671 1.5 1.5 1.5h8.344c.829 0 1.5-.671 1.5-1.5s-.672-1.5-1.5-1.5z" fill="#231f20"/></g></g><g><g><path d="m220.428 238.67h-8.346c-.828 0-1.5.671-1.5 1.5s.672 1.5 1.5 1.5h8.346c.828 0 1.5-.671 1.5-1.5s-.672-1.5-1.5-1.5z" fill="#231f20"/></g></g><g><g><path d="m70.963 90.645c0 .829.671 1.5 1.5 1.5h31.395c.829 0 1.5-.671 1.5-1.5s-.671-1.5-1.5-1.5h-31.395c-.828 0-1.5.671-1.5 1.5z" fill="#231f20"/></g></g><g><g><path d="m154 92.145h29.687c.828 0 1.5-.671 1.5-1.5s-.672-1.5-1.5-1.5h-29.687c-.828 0-1.5.671-1.5 1.5s.672 1.5 1.5 1.5z" fill="#231f20"/></g></g><g><g><path d="m106.296 129.589c-.829 0-1.5.671-1.5 1.5s.671 1.5 1.5 1.5h43.407c.828 0 1.5-.671 1.5-1.5s-.672-1.5-1.5-1.5z" fill="#231f20"/></g></g><g><g><path d="m72.313 63.979h16.937c.829 0 1.5-.671 1.5-1.5s-.671-1.5-1.5-1.5h-16.937c-.829 0-1.5.671-1.5 1.5s.672 1.5 1.5 1.5z" fill="#231f20"/></g></g><g><g><path d="m72.313 71.979h20.437c.829 0 1.5-.671 1.5-1.5s-.671-1.5-1.5-1.5h-20.437c-.829 0-1.5.671-1.5 1.5s.672 1.5 1.5 1.5z" fill="#231f20"/></g></g><g><g><path d="m167.36 63.979h16.937c.828 0 1.5-.671 1.5-1.5s-.672-1.5-1.5-1.5h-16.937c-.828 0-1.5.671-1.5 1.5s.672 1.5 1.5 1.5z" fill="#231f20"/></g></g><g><g><path d="m184.297 68.979h-11.297c-.828 0-1.5.671-1.5 1.5s.672 1.5 1.5 1.5h11.297c.828 0 1.5-.671 1.5-1.5s-.672-1.5-1.5-1.5z" fill="#231f20"/></g></g><g><g><path d="m77.63 102.895c-.829 0-1.5.671-1.5 1.5s.671 1.5 1.5 1.5h16.667c.829 0 1.5-.671 1.5-1.5s-.671-1.5-1.5-1.5z" fill="#231f20"/></g></g><g><g><path d="m183.687 102.895h-20.187c-.828 0-1.5.671-1.5 1.5s.672 1.5 1.5 1.5h20.187c.828 0 1.5-.671 1.5-1.5s-.672-1.5-1.5-1.5z" fill="#231f20"/></g></g><g><g><path d="m72.313 118.895h111.373c.828 0 1.5-.671 1.5-1.5s-.672-1.5-1.5-1.5h-111.373c-.829 0-1.5.671-1.5 1.5s.672 1.5 1.5 1.5z" fill="#231f20"/></g></g><g><g><path d="m110.289 57.926 13.078 10.592c.277.225.611.334.943.334.418 0 .834-.174 1.13-.513l22.365-25.608c1.196-1.37 1.788-3.124 1.665-4.939s-.945-3.474-2.316-4.67c-1.369-1.195-3.125-1.787-4.938-1.665-1.817.122-3.476.944-4.671 2.313l-14.682 16.813-4.001-3.243c-1.416-1.146-3.194-1.674-5-1.48-1.809.19-3.435 1.074-4.577 2.487-2.363 2.917-1.914 7.213 1.004 9.579zm1.329-7.69c.64-.791 1.548-1.285 2.56-1.392.135-.015.271-.021.405-.021.869 0 1.706.295 2.392.85l5.124 4.152c.625.506 1.543.429 2.074-.179l15.633-17.902c.668-.766 1.596-1.225 2.612-1.293 1.024-.068 1.998.263 2.764.931.767.669 1.227 1.598 1.296 2.613.068 1.016-.263 1.997-.932 2.763l-21.415 24.52-11.954-9.682c-1.632-1.324-1.884-3.727-.559-5.36z" fill="#231f20"/></g></g><g><g><path d="m142.585 165.957h-9.231c-.071-.175-.145-.351-.221-.528l6.528-6.529c.586-.585.586-1.536 0-2.121l-14.266-14.266c-.586-.586-1.535-.586-2.121 0l-6.529 6.529c-.177-.076-.353-.15-.528-.221v-9.231c0-.829-.671-1.5-1.5-1.5h-20.175c-.829 0-1.5.671-1.5 1.5v9.231c-.175.071-.351.145-.528.221l-6.529-6.529c-.586-.586-1.535-.586-2.121 0l-14.267 14.266c-.281.281-.439.663-.439 1.061s.158.779.439 1.061l6.529 6.529c-.076.177-.149.353-.221.528h-9.231c-.829 0-1.5.671-1.5 1.5v20.176c0 .829.671 1.5 1.5 1.5h9.231c.071.175.145.351.221.528l-6.529 6.529c-.281.281-.439.663-.439 1.061s.158.779.439 1.061l14.267 14.266c.586.586 1.535.586 2.121 0l6.529-6.528c.177.076.353.149.528.221v9.231c0 .829.671 1.5 1.5 1.5h20.175c.829 0 1.5-.671 1.5-1.5v-9.231c.175-.071.351-.145.528-.221l6.529 6.528c.586.586 1.535.586 2.121 0l14.266-14.266c.586-.585.586-1.536 0-2.121l-6.528-6.529c.076-.177.149-.354.221-.528h9.231c.828 0 1.5-.671 1.5-1.5v-20.176c0-.831-.672-1.502-1.5-1.502zm-1.5 20.176h-8.76c-.63 0-1.193.394-1.409.986-.265.725-.57 1.457-.935 2.237-.267.572-.147 1.25.299 1.695l6.199 6.199-12.145 12.145-6.199-6.199c-.446-.446-1.123-.565-1.695-.299-.778.363-1.51.668-2.237.934-.592.216-.986.779-.986 1.409v8.76h-17.175v-8.76c0-.63-.394-1.193-.986-1.409-.727-.265-1.459-.57-2.238-.934-.57-.266-1.248-.147-1.694.299l-6.199 6.199-12.146-12.145 6.199-6.199c.446-.446.565-1.123.299-1.694-.363-.779-.668-1.511-.934-2.238-.216-.592-.779-.986-1.409-.986h-8.76v-17.176h8.76c.63 0 1.193-.394 1.409-.986.265-.727.57-1.459.934-2.238.267-.571.147-1.249-.299-1.694l-6.199-6.199 12.145-12.145 6.199 6.199c.446.446 1.123.566 1.695.298.778-.363 1.509-.668 2.236-.933.592-.216.987-.779.987-1.41v-8.76h17.175v8.76c0 .631.395 1.194.987 1.41.728.265 1.458.57 2.235.933.572.269 1.25.147 1.696-.298l6.199-6.199 12.145 12.145-6.199 6.199c-.446.446-.565 1.124-.299 1.695.364.78.67 1.512.935 2.237.216.592.779.986 1.409.986h8.76v17.176z" fill="#231f20"/></g></g><g><g><path d="m104.629 163.199c-7.911 0-14.347 6.436-14.347 14.346s6.436 14.346 14.347 14.346 14.346-6.436 14.346-14.346-6.435-14.346-14.346-14.346zm0 25.692c-6.256 0-11.347-5.09-11.347-11.346s5.09-11.346 11.347-11.346 11.346 5.09 11.346 11.346-5.089 11.346-11.346 11.346z" fill="#231f20"/></g></g><g><g><path d="m165.957 151.138h-14.843c-.828 0-1.5.671-1.5 1.5v60c0 .829.672 1.5 1.5 1.5h14.843c.828 0 1.5-.671 1.5-1.5v-60c0-.828-.672-1.5-1.5-1.5zm-1.5 60h-11.843v-57h11.843z" fill="#231f20"/></g></g><g><g><path d="m189.33 129.589h-14.844c-.828 0-1.5.671-1.5 1.5v81.549c0 .829.672 1.5 1.5 1.5h14.844c.828 0 1.5-.671 1.5-1.5v-81.549c0-.828-.672-1.5-1.5-1.5zm-1.5 81.549h-11.844v-78.549h11.844z" fill="#231f20"/></g></g></g></g></svg>