<svg id="icons" enable-background="new 0 0 64 64" height="512" viewBox="0 0 64 64" width="512" xmlns="http://www.w3.org/2000/svg"><g><g><path d="m53 7 5 17.99v.02h-3v-.02l-4.17-14.99h-37.66l-4.17 14.99v.02h-3v-.02l5-17.99z" fill="#5c9eff"/></g><g><path d="m58 25.01 5 6.99h-62l5-6.99h3 4.87 20.02 21.11z" fill="#5c9eff"/></g><g><path d="m33.89 25.01h-20.02-4.87v-.02l4.17-14.99h37.66l4.17 14.99v.02z" fill="#d7e9ff"/></g><g><path d="m50 49h12v8h-12z" fill="#5c9eff"/></g><g><path d="m2.001 49h12v8h-12z" fill="#5c9eff"/></g><g><path d="m51 37h8c0 2.77-2.24 5-5 5h-8c0-2.76 2.24-5 5-5z" fill="#fff"/></g><g><path d="m22.81 40.01h18.38c-1.03 1.79-2.971 3-5.19 3h-7.99-.01c-2.22 0-4.16-1.21-5.19-3z" fill="#fff"/></g><g><path d="m19 42h-9c-2.76 0-5-2.23-5-5h9c2.77 0 5 2.24 5 5z" fill="#fff"/></g><g><path d="m41.19 40.01c.52-.88.81-1.91.81-3h-20c0 1.09.29 2.12.81 3 1.03 1.79 2.971 3 5.19 3h.01 7.99c2.22 0 4.16-1.21 5.19-3zm21.81-8.01v17h-1-12-36-12-1v-17zm-4 5h-8c-2.76 0-5 2.24-5 5h8c2.76 0 5-2.23 5-5zm-49 5h9c0-2.76-2.23-5-5-5h-9c0 2.77 2.24 5 5 5z" fill="#94c1ff"/></g><g><path d="m22 37.01h20c0 1.09-.29 2.12-.81 3h-18.38c-.52-.88-.81-1.91-.81-3z" fill="#fff"/></g></g><g><g><g><path d="m62.999 50.004h-61.998c-.553 0-1-.447-1-1v-17.004c0-.553.447-1 1-1h61.998c.553 0 1 .447 1 1v17.004c0 .553-.447 1-1 1zm-60.998-2h59.998v-15.004h-59.998z" fill="#116fff"/></g><g><path d="m14.005 58.004h-12.003c-.553 0-1-.447-1-1v-8c0-.553.447-1 1-1h12.003c.553 0 1 .447 1 1v8c0 .553-.447 1-1 1zm-11.003-2h10.003v-6h-10.003z" fill="#116fff"/></g><g><path d="m61.998 58.004h-12.003c-.553 0-1-.447-1-1v-8c0-.553.447-1 1-1h12.003c.553 0 1 .447 1 1v8c0 .553-.447 1-1 1zm-11.003-2h10.003v-6h-10.003z" fill="#116fff"/></g><g><path d="m1 33c-.201 0-.404-.061-.581-.187-.449-.321-.553-.946-.231-1.396l5-6.992c.322-.448.945-.553 1.396-.231.449.321.553.946.231 1.396l-5 6.992c-.196.272-.503.418-.815.418z" fill="#116fff"/></g><g><path d="m63 33c-.312 0-.619-.146-.814-.418l-5-6.992c-.321-.449-.218-1.074.231-1.396.45-.321 1.073-.217 1.396.231l5 6.992c.321.449.218 1.074-.231 1.396-.178.126-.381.187-.582.187z" fill="#116fff"/></g><g><path d="m57.999 26.008h-51.998c-.553 0-1-.447-1-1s.447-1 1-1h51.998c.553 0 1 .447 1 1s-.447 1-1 1z" fill="#116fff"/></g><g><g><path d="m45.999 43.002c-.553 0-1-.447-1-1 0-3.309 2.691-6 6-6 .553 0 1 .447 1 1s-.447 1-1 1c-2.206 0-4 1.794-4 4 0 .553-.447 1-1 1z" fill="#116fff"/></g><g><path d="m53.998 43.002c-.553 0-1-.447-1-1s.447-1 1-1c2.206 0 4-1.794 4-4 0-.553.447-1 1-1s1 .447 1 1c0 3.309-2.691 6-6 6z" fill="#116fff"/></g><g><path d="m58.998 38.002h-7.999c-.553 0-1-.447-1-1s.447-1 1-1h7.999c.553 0 1 .447 1 1s-.447 1-1 1z" fill="#116fff"/></g><g><path d="m53.998 43.002h-7.999c-.553 0-1-.447-1-1s.447-1 1-1h7.999c.553 0 1 .447 1 1s-.447 1-1 1z" fill="#116fff"/></g></g><g><g><path d="m19.002 43.002c-.553 0-1-.447-1-1 0-2.206-1.794-4-4-4-.553 0-1-.447-1-1s.447-1 1-1c3.309 0 6 2.691 6 6 0 .553-.447 1-1 1z" fill="#116fff"/></g><g><path d="m10.002 43.002c-3.309 0-6-2.691-6-6 0-.553.447-1 1-1s1 .447 1 1c0 2.206 1.794 4 4 4 .553 0 1 .447 1 1s-.447 1-1 1z" fill="#116fff"/></g><g><path d="m14.002 38.002h-9c-.553 0-1-.447-1-1s.447-1 1-1h9c.553 0 1 .447 1 1s-.447 1-1 1z" fill="#116fff"/></g><g><path d="m19.002 43.002h-9c-.553 0-1-.447-1-1s.447-1 1-1h9c.553 0 1 .447 1 1s-.447 1-1 1z" fill="#116fff"/></g></g><g><path d="m28.001 44.006c-3.859 0-7-3.141-7-7 0-.553.447-1 1-1s1 .447 1 1c0 2.757 2.243 5 5 5 .553 0 1 .447 1 1s-.447 1-1 1z" fill="#116fff"/></g><g><path d="m35.999 44.006c-.553 0-1-.447-1-1s.447-1 1-1c2.757 0 5-2.243 5-5 0-.553.447-1 1-1s1 .447 1 1c0 3.859-3.141 7-7 7z" fill="#116fff"/></g><g><path d="m35.999 44.008h-7.993c-.553 0-1-.447-1-1s.447-1 1-1h7.993c.553 0 1 .447 1 1s-.447 1-1 1z" fill="#116fff"/></g><g><path d="m41.999 38.006h-19.998c-.553 0-1-.447-1-1s.447-1 1-1h19.998c.553 0 1 .447 1 1s-.447 1-1 1z" fill="#116fff"/></g><g><path d="m41.2 41.006h-18.4c-.553 0-1-.447-1-1s.447-1 1-1h18.4c.553 0 1 .447 1 1s-.447 1-1 1z" fill="#116fff"/></g></g><g><path d="m13.873 26.008c-.429 0-.825-.277-.956-.708-.162-.528.136-1.087.664-1.248l13.125-4.009c.529-.165 1.088.137 1.248.664.162.528-.136 1.087-.664 1.248l-13.125 4.009c-.098.03-.195.044-.292.044z" fill="#116fff"/></g><g><path d="m29.995 21.999h-12c-.553 0-1-.447-1-1s.447-1 1-1h12c.553 0 1 .447 1 1s-.447 1-1 1z" fill="#116fff"/></g><g><path d="m33.893 26.008c-.429 0-.825-.277-.956-.708-.162-.528.136-1.087.664-1.248l13.125-4.009c.53-.165 1.088.137 1.248.664.162.528-.136 1.087-.664 1.248l-13.125 4.009c-.098.03-.196.044-.292.044z" fill="#116fff"/></g><g><path d="m50.015 21.999h-12c-.553 0-1-.447-1-1s.447-1 1-1h12c.553 0 1 .447 1 1s-.448 1-1 1z" fill="#116fff"/></g><g><g><path d="m6.002 25.993c-.089 0-.179-.012-.269-.036-.532-.148-.844-.699-.696-1.231l4.999-17.997c.148-.532.698-.84 1.231-.696.532.148.844.699.696 1.231l-4.998 17.997c-.123.442-.526.732-.963.732z" fill="#116fff"/></g><g><path d="m9.005 25.993c-.089 0-.179-.012-.269-.036-.532-.148-.844-.699-.696-1.231l4.165-14.993c.148-.532.698-.842 1.231-.696.532.148.844.699.696 1.231l-4.164 14.993c-.123.442-.526.732-.963.732z" fill="#116fff"/></g><g><path d="m57.998 25.993c-.438 0-.84-.29-.963-.732l-4.999-17.997c-.147-.532.164-1.083.696-1.231.531-.144 1.084.164 1.231.696l4.999 17.997c.147.532-.164 1.083-.696 1.231-.089.024-.179.036-.268.036z" fill="#116fff"/></g><g><path d="m54.997 25.993c-.438 0-.84-.29-.963-.732l-4.165-14.992c-.147-.532.164-1.083.696-1.231.531-.144 1.083.164 1.231.696l4.165 14.992c.147.532-.164 1.083-.696 1.231-.089.024-.179.036-.268.036z" fill="#116fff"/></g><g><path d="m53 7.996h-42c-.553 0-1-.447-1-1s.447-1 1-1h42c.553 0 1 .447 1 1s-.447 1-1 1z" fill="#116fff"/></g><g><path d="m50.834 11h-37.668c-.553 0-1-.447-1-1s.447-1 1-1h37.668c.553 0 1 .447 1 1s-.447 1-1 1z" fill="#116fff"/></g></g></g></svg>