<svg id="Layer_1" enable-background="new 0 0 482 482" height="512" viewBox="0 0 482 482" width="512" xmlns="http://www.w3.org/2000/svg"><path d="m364 224v217c0 17.67-14.33 32-32 32h-182c-17.67 0-32-14.33-32-32v-217c0-31.86 12.12-60.9 32-82.74v-100.26c0-17.67 14.33-32 32-32h118c17.67 0 32 14.33 32 32v100.26c19.88 21.84 32 50.88 32 82.74z" fill="#b9dcff"/><path d="m332 41v100.26c-48.947-53.802-133.291-53.561-182 0v-100.26c0-17.67 14.33-32 32-32h118c17.67 0 32 14.33 32 32z" fill="#d1e7ff"/><path d="m300.598 34.912c-17.633.002-46.141.028-92.656.028-17.673 0-32.001 14.326-32.001 32v52.67c-9.62 6-18.35 13.3-25.94 21.65v-100.26c0-17.673 14.327-32 32-32 126.475 0 118.379-.016 119.47.033 16.679.755 15.823 25.877-.873 25.879z" fill="#e8f3ff"/><path d="m260 77v44c-13.751 0-24.249 0-38 0v-44c0-8.84 7.16-16 16-16h6c8.84 0 16 7.16 16 16z" fill="#b9dcff"/><path d="m251.924 74.92c-8.836 0-16.004 7.164-16.004 16v30.08h-13.92v-44c0-8.837 7.163-16 16-16 5.87 0 12.56-.897 18.123 5.554 2.707 3.139.713 8.366-4.199 8.366z" fill="#d1e7ff"/><path d="m280.98 107.641c13.813 4.723 10.297 25.19-4.301 25.289-63.987.432-122.559 51.963-122.559 123.19v212.76c0 2.275-1.845 4.12-4.12 4.12-17.673 0-32-14.327-32-32v-217c0-83.349 82.049-144.03 162.98-116.359z" fill="#d1e7ff"/><path d="m364 412.67v28.33c0 17.67-14.33 32-32 32h-182c-17.67 0-32-14.33-32-32v-28.33z" fill="#b9dcff"/><path d="m154.12 412.67v28.569c0 23.53-36.12 24.782-36.12-.239v-28.33z" fill="#d1e7ff"/><path d="m269 94.999v-17.999c0-13.785-11.215-25-25-25h-6c-13.785 0-25 11.215-25 25v17.999c-59.38 12.877-104 65.822-104 129.001v217c0 22.607 18.393 41 41 41h182c22.607 0 41-18.393 41-41v-217c0-63.179-44.62-116.124-104-129.001zm-38-2.999v-15c0-3.86 3.14-7 7-7h6c3.86 0 7 3.14 7 7v15zm124 349c0 12.682-10.318 23-23 23h-182c-12.682 0-23-10.318-23-23v-19.333h195c4.971 0 9-4.029 9-9s-4.029-9-9-9h-195v-179.667c0-62.86 51.14-114 114-114s114 51.14 114 114zm-214-348v-52c0-22.607 18.393-41 41-41h118c22.607 0 41 18.393 41 41v52c0 4.971-4.029 9-9 9s-9-4.029-9-9v-52c0-12.682-10.318-23-23-23h-118c-12.682 0-23 10.318-23 23v52c0 4.971-4.029 9-9 9s-9-4.029-9-9zm35 189v54c0 4.971-4.029 9-9 9s-9-4.029-9-9v-54c0-4.971 4.029-9 9-9s9 4.029 9 9zm0-42v7c0 4.971-4.029 9-9 9s-9-4.029-9-9v-7c0-4.971 4.029-9 9-9s9 4.029 9 9z" fill="#2e58ff"/></svg>