<svg id="icons" enable-background="new 0 0 64 64" height="512" viewBox="0 0 64 64" width="512" xmlns="http://www.w3.org/2000/svg"><g><g><path d="m44.5 14h3.01v4 4c0 1.1-.899 2-2 2h-6.01c1.1 0 2-.9 2-2v-19c0-1.1-.9-2-2-2h6.01c1.101 0 2 .9 2 2v8h-3.01z" fill="#d7e9ff"/></g><g><path d="m53.5 14v10.01h-3v-3.01-7h-2.99-3.01v-3h3.01 2.99c1.66 0 3 1.34 3 3z" fill="#fff"/></g><g><path d="m47.6 53.15c1.74-1.041 2.9-2.94 2.9-5.121v-24.019h3v24.02c0 3.921-2.5 7.24-5.99 8.48-.939.33-1.95.51-3 .51h-.01v-3h.01c1.13 0 2.19-.31 3.09-.87z" fill="#94c1ff"/></g><g><path d="m44.5 57.02h.01c1.05 0 2.061-.18 3-.51v4.49c0 1.1-.899 2-2 2h-6.01c1.1 0 2-.9 2-2v-35c0-1.1-.9-2-2-2h6.01c1.101 0 2 .9 2 2v27l.09.15c-.899.56-1.96.869-3.09.869h-.01z" fill="#d7e9ff"/></g><g><path d="m29.5 40.5c0 1.93-1.57 3.5-3.5 3.5s-3.5-1.57-3.5-3.5 3.5-5.5 3.5-5.5 3.5 3.57 3.5 5.5z" fill="#d7e9ff"/></g><g><path d="m13.5 21h25v-17h-25zm28-18v19c0 1.1-.9 2-2 2h-21-6c-1.1 0-2-.9-2-2v-19c0-1.1.9-2 2-2h6 21c1.1 0 2 .9 2 2z" fill="#fff"/></g><g><path d="m26 30c5.24 0 9.5 4.26 9.5 9.5 0 5.25-4.25 9.5-9.5 9.5s-9.5-4.25-9.5-9.5c0-5.24 4.25-9.5 9.5-9.5zm0 14c1.93 0 3.5-1.57 3.5-3.5s-3.5-5.5-3.5-5.5-3.5 3.57-3.5 5.5 1.57 3.5 3.5 3.5z" fill="#94c1ff"/></g><g><path d="m41.5 26v35c0 1.1-.9 2-2 2h-21-6c-1.1 0-2-.9-2-2v-35c0-1.1.9-2 2-2h6 21c1.1 0 2 .9 2 2zm-6 13.5c0-5.24-4.26-9.5-9.5-9.5-5.25 0-9.5 4.26-9.5 9.5 0 5.25 4.25 9.5 9.5 9.5s9.5-4.25 9.5-9.5z" fill="#fff"/></g><g><path d="m13.5 4h25v17h-25z" fill="#d7e9ff"/></g></g><g><g><path d="m39.5 64h-27.002c-1.654 0-3-1.346-3-3v-34.996c0-1.654 1.346-3 3-3h27.002c1.654 0 3 1.346 3 3v34.996c0 1.654-1.346 3-3 3zm-27.002-38.996c-.552 0-1 .449-1 1v34.996c0 .552.448 1 1 1h27.002c.552 0 1-.448 1-1v-34.996c0-.551-.448-1-1-1z" fill="#116fff"/></g><g><path d="m39.5 25.004h-27.002c-1.654 0-3-1.346-3-3v-19.004c0-1.654 1.346-3 3-3h27.002c1.654 0 3 1.346 3 3v19.004c0 1.654-1.346 3-3 3zm-27.002-23.004c-.552 0-1 .449-1 1v19.004c0 .551.448 1 1 1h27.002c.552 0 1-.449 1-1v-19.004c0-.551-.448-1-1-1z" fill="#116fff"/></g><g><g><path d="m45.506 64h-27.002c-.553 0-1-.447-1-1s.447-1 1-1h27.002c.552 0 1-.448 1-1v-4.488c0-.553.447-1 1-1s1 .447 1 1v4.488c0 1.654-1.346 3-3 3z" fill="#116fff"/></g><g><path d="m47.506 54.002c-.553 0-1-.447-1-1v-26.998c0-.551-.448-1-1-1h-27.002c-.553 0-1-.448-1-1s.447-1 1-1h27.002c1.654 0 3 1.346 3 3v26.998c0 .553-.447 1-1 1z" fill="#116fff"/></g><g><path d="m45.506 25.004h-27.002c-.553 0-1-.448-1-1s.447-1 1-1h27.002c.552 0 1-.449 1-1 0-.552.447-1 1-1s1 .448 1 1c0 1.654-1.346 3-3 3z" fill="#116fff"/></g><g><path d="m47.506 4c-.553 0-1-.448-1-1 0-.551-.448-1-1-1h-27.002c-.553 0-1-.448-1-1s.447-1 1-1h27.002c1.654 0 3 1.346 3 3 0 .552-.447 1-1 1z" fill="#116fff"/></g></g><g><path d="m38.5 22h-24.998c-.553 0-1-.448-1-1v-17.001c0-.552.447-1 1-1h24.998c.553 0 1 .448 1 1v17.001c0 .552-.447 1-1 1zm-23.998-2h22.998v-15.001h-22.998z" fill="#116fff"/></g><g><path d="m44.502 16.004c-.553 0-1-.448-1-1v-5.002c0-.552.447-1 1-1s1 .448 1 1v5.002c0 .552-.447 1-1 1z" fill="#116fff"/></g><g><path d="m44.502 59.045c-.553 0-1-.447-1-1v-5c0-.553.447-1 1-1s1 .447 1 1v5c0 .553-.447 1-1 1z" fill="#116fff"/></g><g><path d="m53.502 15.002c-.553 0-1-.448-1-1 0-1.103-.897-2-2-2-.553 0-1-.448-1-1s.447-1 1-1c2.206 0 4 1.794 4 4 0 .552-.447 1-1 1z" fill="#116fff"/></g><g><path d="m50.502 12.002h-6c-.553 0-1-.448-1-1s.447-1 1-1h6c.553 0 1 .448 1 1s-.447 1-1 1z" fill="#116fff"/></g><g><path d="m50.502 15.002h-6c-.553 0-1-.448-1-1s.447-1 1-1h6c.553 0 1 .448 1 1s-.447 1-1 1z" fill="#116fff"/></g><g><path d="m47.506 23.004c-.553 0-1-.448-1-1v-8.002c0-.552.447-1 1-1s1 .448 1 1v8.002c0 .552-.447 1-1 1z" fill="#116fff"/></g><g><path d="m47.506 12.002c-.553 0-1-.448-1-1v-8.002c0-.552.447-1 1-1s1 .448 1 1v8.002c0 .552-.447 1-1 1z" fill="#116fff"/></g><g><path d="m53.502 25.006c-.553 0-1-.448-1-1v-10.004c0-.552.447-1 1-1s1 .448 1 1v10.004c0 .552-.447 1-1 1z" fill="#116fff"/></g><g><path d="m53.502 25.006h-3c-.553 0-1-.448-1-1s.447-1 1-1h3c.553 0 1 .448 1 1s-.447 1-1 1z" fill="#116fff"/></g><g><path d="m50.502 25.006c-.553 0-1-.448-1-1v-10.004c0-.552.447-1 1-1s1 .448 1 1v10.004c0 .552-.447 1-1 1z" fill="#116fff"/></g><g><path d="m50.506 22c-2.206 0-4-1.794-4-4 0-.552.447-1 1-1s1 .448 1 1c0 1.103.897 2 2 2 .553 0 1 .448 1 1s-.447 1-1 1z" fill="#116fff"/></g><g><path d="m44.508 58.023c-.553 0-1-.447-1-1s.447-1 1-1c4.408 0 7.994-3.586 7.994-7.994 0-.553.447-1 1-1s1 .447 1 1c0 5.511-4.483 9.994-9.994 9.994z" fill="#116fff"/></g><g><path d="m44.508 55.023c-.553 0-1-.447-1-1s.447-1 1-1c2.754 0 4.994-2.24 4.994-4.994 0-.553.447-1 1-1s1 .447 1 1c0 3.857-3.138 6.994-6.994 6.994z" fill="#116fff"/></g><g><path d="m53.502 49.029c-.553 0-1-.447-1-1v-24.023c0-.552.447-1 1-1s1 .448 1 1v24.023c0 .553-.447 1-1 1z" fill="#116fff"/></g><g><path d="m50.502 49.029c-.553 0-1-.447-1-1v-24.023c0-.552.447-1 1-1s1 .448 1 1v24.023c0 .553-.447 1-1 1z" fill="#116fff"/></g><g><path d="m24.496 8.999h-6.994c-.553 0-1-.448-1-1s.447-1 1-1h6.994c.553 0 1 .448 1 1s-.447 1-1 1z" fill="#116fff"/></g><g><path d="m34.506 12.002h-17.004c-.553 0-1-.448-1-1s.447-1 1-1h17.004c.553 0 1 .448 1 1s-.447 1-1 1z" fill="#116fff"/></g><g><path d="m20.502 18.002h-3c-.553 0-1-.448-1-1s.447-1 1-1h3c.553 0 1 .448 1 1s-.447 1-1 1z" fill="#116fff"/></g><g><path d="m34.5 18.002h-3c-.553 0-1-.448-1-1s.447-1 1-1h3c.553 0 1 .448 1 1s-.447 1-1 1z" fill="#116fff"/></g><g><g><path d="m35.5 53.999h-18.992c-.553 0-1-.447-1-1s.447-1 1-1h18.992c.553 0 1 .447 1 1s-.447 1-1 1z" fill="#116fff"/></g><g><path d="m30.5 57.022h-8.992c-.553 0-1-.447-1-1s.447-1 1-1h8.992c.553 0 1 .447 1 1s-.447 1-1 1z" fill="#116fff"/></g><g><path d="m25.999 50.003c-5.79-.001-10.501-4.712-10.502-10.502.002-5.788 4.713-10.499 10.502-10.501 5.788.002 10.499 4.713 10.502 10.5-.001 5.791-4.712 10.502-10.502 10.503zm0-19.003c-4.687.002-8.5 3.815-8.502 8.501.001 4.688 3.814 8.501 8.502 8.502 4.688-.001 8.501-3.814 8.502-8.502-.003-4.686-3.816-8.499-8.502-8.501z" fill="#116fff"/></g><g><path d="m26 45.002c-.001 0-.001 0-.002 0-2.48-.001-4.499-2.02-4.499-4.5.001-2.227 3.153-5.557 3.786-6.202.188-.191.445-.3.714-.3.269 0 .526.108.715.3.631.646 3.783 3.976 3.785 6.201-.001 2.481-2.02 4.5-4.499 4.501zm-.001-8.528c-1.188 1.353-2.5 3.172-2.5 4.029 0 1.377 1.121 2.498 2.5 2.499 1.378-.001 2.499-1.123 2.5-2.501-.001-.855-1.313-2.675-2.5-4.027z" fill="#116fff"/></g></g></g></svg>