<svg height="511pt" viewBox="0 -28 511.99385 511" width="511pt" xmlns="http://www.w3.org/2000/svg"><path d="m187.679688 81.503906c13.117187-3.597656 26.640624-6.085937 40.480468-7.519531-8.082031 15.039063-15.363281 32.398437-20.160156 51.921875-86.640625 19.679688-153.441406 91.359375-165.921875 180.46875-27.757813-33.902344-34.078125-60.542969-34.078125-60.542969 13.277344-36.40625 34.398438-69.046875 61.359375-95.925781 32.152344-32.320312 72.800781-56.320312 118.320313-68.402344zm0 0" fill="#94c1ff"/><path d="m288 264.550781v.234375c0 36.640625 10.71875 70.800782 29.117188 99.4375 31.679687 49.128906 86.167968 82.25 148.5625 84.25-260.882813-1.199218-375.042969-82.808594-423.601563-142.097656 12.480469-89.109375 79.28125-160.789062 165.921875-180.46875 4.796875-19.523438 12.078125-36.882812 20.160156-51.921875 22.636719-41.832031 51.839844-65.441406 51.839844-65.441406l16 88 208 128-32 40.242187-123.042969-24.722656c-16.160156 15.441406-37.917969 24.488281-60.957031 24.488281zm0 0" fill="#d7e9ff"/><path d="m317.117188 364.222656c-18.117188-28.199218-28.734376-61.765625-29.054688-97.773437-10.070312 3.933593-33.304688-8.503907-33.304688-8.503907 0 36.640626 11.960938 85.632813 30.359376 114.269532 21.027343 32.601562 52.136718 58.097656 88.898437 72.175781 28.34375 2.496094 58.832031 3.921875 91.664063 4.074219-62.402344-1.992188-116.882813-35.121094-148.5625-84.242188zm0 0" fill="#94c1ff"/><path d="m296 96.542969-16-88s-8.671875 7.042969-20.203125 20.152343c-.167969.199219-.292969.34375-.460937.5625l4.664062 75.285157 196.78125 126.167969-21.824219 27.433593 33.042969 6.640625 32-40.242187zm0 0" fill="#94c1ff"/><g fill="#116fff"><path d="m296.246094 168.503906c-4.421875 0-8.039063-3.582031-8.039063-8 0-4.414062 3.535157-8 7.953125-8h.085938c4.417968 0 8 3.585938 8 8 0 4.417969-3.582032 8-8 8zm0 0"/><path d="m288.125 272.503906c-7.277344 0-14.621094-.832031-21.902344-2.527344-20.671875-4.824218-38.71875-16-52.199218-32.335937-2.816407-3.410156-2.328126-8.457031 1.078124-11.265625 3.425782-2.804688 8.449219-2.320312 11.265626 1.074219 11.222656 13.605469 26.269531 22.917969 43.503906 26.941406 26.40625 6.152344 53.910156-1.390625 73.566406-20.191406 3.175781-3.039063 8.25-2.941407 11.3125.25 3.054688 3.191406 2.945312 8.253906-.246094 11.3125-18.167968 17.375-41.929687 26.742187-66.378906 26.742187zm0 0"/><path d="m472.054688 272.710938c-.519532 0-1.054688-.046876-1.585938-.160157l-123.085938-24.734375c-4.328124-.863281-7.136718-5.089844-6.265624-9.425781.875-4.335937 5.082031-7.117187 9.425781-6.261719l123.085937 24.734375c4.328125.863281 7.136719 5.089844 6.265625 9.425781-.769531 3.800782-4.105469 6.421876-7.839843 6.421876zm0 0"/><path d="m503.984375 232.503906c-1.433594 0-2.875-.382812-4.1875-1.183594l-208-128c-3.757813-2.320312-4.925781-7.238281-2.613281-11 2.304687-3.769531 7.214844-4.945312 11.007812-2.625l208 128c3.757813 2.320313 4.925782 7.242188 2.613282 11-1.511719 2.457032-4.132813 3.808594-6.820313 3.808594zm0 0"/><path d="m208.007812 133.847656c-.632812 0-1.273437-.070312-1.90625-.230468-4.296874-1.046876-6.917968-5.375-5.871093-9.671876 18.449219-75.417968 72.449219-119.808593 74.734375-121.664062 3.433594-2.785156 8.457031-2.25 11.242187 1.183594 2.785157 3.429687 2.253907 8.464844-1.167969 11.246094-.511718.425781-52.144531 43.027343-69.257812 113.035156-.910156 3.65625-4.175781 6.101562-7.773438 6.101562zm0 0"/><path d="m295.984375 104.503906c-3.800781 0-7.167969-2.703125-7.859375-6.566406l-16-88c-.796875-4.34375 2.089844-8.511719 6.441406-9.304688 4.34375-.777343 8.511719 2.09375 9.296875 6.441407l16 88c.800781 4.34375-2.089843 8.511719-6.441406 9.300781-.488281.089844-.960937.128906-1.4375.128906zm0 0"/><path d="m472.039062 272.710938c-1.746093 0-3.503906-.566407-4.96875-1.734376-3.464843-2.753906-4.039062-7.785156-1.289062-11.238281l31.945312-40.210937c2.753907-3.453125 7.785157-4.03125 11.238282-1.285156 3.464844 2.75 4.042968 7.78125 1.289062 11.238281l-31.941406 40.207031c-1.578125 1.984375-3.914062 3.023438-6.273438 3.023438zm0 0"/><path d="m471.796875 456.503906c-65.542969 0-125.863281-32.894531-161.359375-88.015625-19.902344-30.910156-30.429688-66.800781-30.429688-103.777343 0-4.421876 3.574219-8 8-8 4.421876 0 8 3.578124 8 8 0 33.898437 9.640626 66.792968 27.878907 95.121093 32.535156 50.511719 87.824219 80.671875 147.910156 80.671875 4.425781 0 8 3.578125 8 8 0 4.425782-3.582031 8-8 8zm0 0"/><path d="m8.007812 253.777344c-.914062 0-1.839843-.160156-2.753906-.488282-4.152344-1.519531-6.277344-6.121093-4.765625-10.265624 35.421875-96.824219 124.46875-166.320313 226.847657-177.03125 4.535156-.457032 8.335937 2.734374 8.789062 7.128906.464844 4.390625-2.726562 8.328125-7.117188 8.792968-96.351562 10.078126-180.152343 75.476563-213.488281 166.613282-1.183593 3.242187-4.25 5.25-7.511719 5.25zm0 0"/><path d="m42.109375 314.3125c-.367187 0-.742187-.023438-1.117187-.082031-4.378907-.605469-7.425782-4.652344-6.816407-9.03125 12.789063-91.488281 81.941407-166.695313 172.046875-187.152344 4.359375-1 8.59375 1.722656 9.574219 6.035156.976563 4.308594-1.726563 8.589844-6.03125 9.566407-83.664063 18.992187-147.863281 88.824218-159.742187 173.769531-.554688 4-3.984376 6.894531-7.914063 6.894531zm0 0"/><path d="m189.742188 97.222656c-3.527344 0-6.765626-2.359375-7.71875-5.933594l-2.074219-7.738281c-1.144531-4.269531 1.394531-8.65625 5.65625-9.796875 4.28125-1.136718 8.65625 1.390625 9.800781 5.65625l2.074219 7.734375c1.140625 4.273438-1.394531 8.65625-5.65625 9.800781-.699219.191407-1.394531.277344-2.082031.277344zm0 0"/><path d="m128.015625 122.792969c-2.769531 0-5.457031-1.433594-6.9375-4l-4-6.929688c-2.207031-3.832031-.894531-8.71875 2.929687-10.925781 3.816407-2.210938 8.710938-.898438 10.925782 2.925781l4 6.929688c2.210937 3.832031.898437 8.71875-2.925782 10.925781-1.257812.730469-2.632812 1.074219-3.992187 1.074219zm0 0"/><path d="m74.984375 163.472656c-2.050781 0-4.105469-.785156-5.664063-2.34375l-5.65625-5.664062c-3.121093-3.128906-3.121093-8.191406.007813-11.3125 3.125-3.121094 8.191406-3.128906 11.320313.007812l5.65625 5.664063c3.117187 3.128906 3.117187 8.191406-.011719 11.3125-1.558594 1.550781-3.605469 2.335937-5.652344 2.335937zm0 0"/><path d="m34.292969 216.488281c-1.359375 0-2.734375-.34375-3.992188-1.070312l-6.933593-4.007813c-3.832032-2.210937-5.144532-7.105468-2.929688-10.929687 2.199219-3.832031 7.113281-5.152344 10.929688-2.929688l6.933593 4.007813c3.832031 2.210937 5.144531 7.105468 2.929688 10.929687-1.480469 2.566407-4.167969 4-6.9375 4zm0 0"/></g></svg>