<svg id="Calque_1" data-name="Calque 1" xmlns="http://www.w3.org/2000/svg" viewBox="0 0 50 50"><defs><style>.cls-1{fill:#191b28;}.cls-2,.cls-4{fill:#fff;}.cls-2{fill-rule:evenodd;}.cls-3{fill:#06df86;}.cls-4{stroke:#06df86;stroke-miterlimit:10;stroke-width:2px;}</style></defs><title>V5_CARIZY_BANQUE_PICTOGRAMMES</title><path class="cls-1" d="M27.38,12H22.27A13.62,13.62,0,0,0,8.65,25.62V35.84h0v4.25a2.58,2.58,0,0,0,3.15,2.42A2.6,2.6,0,0,0,13.75,40V38.2H35.9V40a2.54,2.54,0,1,0,5.08.14V35.84h0V25.62A13.62,13.62,0,0,0,27.38,12Z"/><path class="cls-2" d="M13.15,21l.57-1.54a3.63,3.63,0,0,1,3.44-2.27H32.48a3.62,3.62,0,0,1,3.43,2.26L36.5,21a3.44,3.44,0,0,1-3.43,4.55H16.58A3.44,3.44,0,0,1,13.15,21Z"/><circle class="cls-3" cx="34.76" cy="30.1" r="2.83"/><circle class="cls-3" cx="14.84" cy="30.1" r="2.83"/><path class="cls-4" d="M35,4.4a8.05,8.05,0,1,0,8,8A8.06,8.06,0,0,0,35,4.4Z"/><path class="cls-1" d="M39.67,9a.92.92,0,0,0-1.3,0l-4.86,4.89-2-2a.92.92,0,0,0-1.29,0,.91.91,0,0,0-.26.65.85.85,0,0,0,.27.63l2.64,2.66a.88.88,0,0,0,.63.25,1,1,0,0,0,.66-.26l.31-.32h0l5.2-5.21A.9.9,0,0,0,39.67,9Z"/></svg>